<svg fill="none" height="24" viewBox="0 0 38 37" width="24" xmlns="http://www.w3.org/2000/svg"><path clip-rule="evenodd" d="M18.9995 0.866211C8.78357 0.866211 0.866211 8.31092 0.866211 18.3655C0.866211 23.625 3.03345 28.1695 6.5616 31.3093C6.85714 31.5743 7.03592 31.9409 7.05051 32.3365L7.14902 35.5453C7.18186 36.5689 8.24359 37.2331 9.18491 36.823L12.7824 35.244C13.0889 35.1097 13.4282 35.0843 13.7493 35.1714C15.4021 35.6251 17.1643 35.8647 18.9995 35.8647C29.2155 35.8647 37.1328 28.42 37.1328 18.3655C37.1328 8.31092 29.2155 0.866211 18.9995 0.866211Z" fill="white" fill-rule="evenodd"></path> <path clip-rule="evenodd" d="M8.11101 23.6617L13.4384 15.2669C14.2849 13.933 16.1021 13.5995 17.3719 14.5455L21.6082 17.7027C21.9986 17.9927 22.5314 17.989 22.9182 17.6991L28.6396 13.3856C29.4022 12.8093 30.402 13.7191 29.8875 14.5238L24.5638 22.915C23.7173 24.2489 21.9001 24.5824 20.6303 23.6363L16.394 20.4792C16.0035 20.1892 15.4708 20.1929 15.084 20.4828L9.35892 24.7999C8.59631 25.3762 7.59651 24.4664 8.11101 23.6617Z" fill="#2339FF" fill-rule="evenodd"></path></svg>
