<svg fill="none" height="24" viewBox="0 0 36 31" width="24" xmlns="http://www.w3.org/2000/svg"><path clip-rule="evenodd" d="M13.485 28.2498C12.4169 28.2498 12.5984 27.8465 12.23 26.8295L9.08899 16.4921L33.267 2.1485" fill="#C8DAEA" fill-rule="evenodd"></path> <path clip-rule="evenodd" d="M13.485 28.2498C14.3092 28.2498 14.6734 27.8728 15.1335 27.4255L19.5295 23.151L14.046 19.8444" fill="#A9C9DD" fill-rule="evenodd"></path> <path clip-rule="evenodd" d="M14.0456 19.8451L27.3325 29.6617C28.8487 30.4983 29.943 30.0651 30.3207 28.254L35.7291 2.76735C36.2829 0.547315 34.8829 -0.45959 33.4324 0.198932L1.67401 12.4448C-0.4938 13.3143 -0.481161 14.5238 1.27886 15.0626L9.42878 17.6064L28.2967 5.70281C29.1874 5.16268 30.0049 5.45307 29.3339 6.04856" fill="url(#paint0_linear_5631_250979)" fill-rule="evenodd"></path> <defs><linearGradient id="paint0_linear_5631_250979" gradientUnits="userSpaceOnUse" x1="15.4023" x2="18.9251" y1="15.1637" y2="26.5589"><stop stop-color="#EFF7FC"></stop> <stop offset="1" stop-color="white"></stop></linearGradient></defs></svg>
